<?xml version="1.0" standalone="no"?>
<!DOCTYPE svg PUBLIC "-//W3C//DTD SVG 20010904//EN"
 "http://www.w3.org/TR/2001/REC-SVG-20010904/DTD/svg10.dtd">
<svg version="1.0" xmlns="http://www.w3.org/2000/svg"
 width="300.000000pt" height="300.000000pt" viewBox="0 0 300.000000 300.000000"
 preserveAspectRatio="xMidYMid meet">
<metadata>
Created by potrace 1.10, written by Peter Selinger 2001-2011
</metadata>
<g transform="translate(0.000000,300.000000) scale(0.100000,-0.100000)"
fill="#000000" stroke="none">
<path d="M1559 2693 c0 -16 -3 -50 -7 -78 -3 -27 -6 -68 -6 -90 -1 -44 -6 -42
102 -46 81 -4 132 43 132 122 0 72 -65 119 -165 119 -53 0 -55 -1 -56 -27z
m169 -38 c40 -47 25 -116 -31 -140 -44 -18 -129 -9 -123 14 2 9 7 48 11 86 4
39 9 73 11 76 2 3 27 2 56 -2 38 -6 59 -16 76 -34z"/>
<path d="M1229 2702 c-15 -3 -16 -8 -3 -60 7 -31 18 -76 24 -100 5 -23 10 -54
10 -68 0 -19 5 -25 18 -22 12 2 16 11 14 34 -5 46 19 61 56 35 16 -11 34 -27
41 -35 7 -8 21 -12 33 -8 18 4 19 7 6 16 -8 6 -32 26 -53 44 l-38 34 32 45
c46 64 9 54 -41 -12 -21 -27 -42 -51 -46 -53 -5 -1 -15 33 -23 76 -11 62 -17
77 -30 74z"/>
<path d="M1855 2596 c-59 -26 -72 -101 -26 -147 23 -23 39 -29 70 -29 27 0 41
4 41 13 0 8 -13 13 -35 13 -38 0 -75 27 -75 56 0 23 4 23 77 -6 34 -13 64 -21
67 -18 10 9 7 62 -5 84 -6 11 -26 26 -44 34 -40 16 -33 16 -70 0z m73 -32 c21
-14 31 -54 14 -54 -20 0 -102 33 -102 40 0 12 31 29 50 30 9 0 26 -7 38 -16z"/>
<path d="M1081 2563 c-42 -39 -47 -71 -19 -113 28 -41 69 -54 114 -35 28 11
54 40 54 59 0 13 -21 4 -44 -19 -29 -29 -52 -31 -84 -9 -15 10 -22 25 -22 47
0 46 13 60 62 66 53 7 57 25 6 29 -29 2 -43 -3 -67 -25z"/>
<path d="M2025 2492 c-12 -117 -11 -136 5 -139 9 -2 49 21 89 51 90 68 85 62
67 69 -8 3 -42 -15 -81 -45 l-67 -50 6 43 c3 24 9 62 12 85 4 32 2 43 -9 47
-13 5 -17 -7 -22 -61z"/>
<path d="M900 2473 c-27 -18 -49 -43 -50 -55 0 -17 23 -7 42 18 15 19 28 24
51 22 43 -4 44 -22 2 -48 -49 -30 -61 -55 -40 -86 8 -13 24 -24 35 -24 31 0
69 21 76 42 3 11 12 17 20 14 28 -11 24 16 -13 71 -43 65 -78 78 -123 46z
m108 -86 c5 -25 -26 -57 -54 -57 -33 0 -35 21 -6 53 29 30 55 32 60 4z"/>
<path d="M2171 2379 c-42 -41 -42 -86 -1 -127 32 -32 80 -48 80 -26 0 7 -10
16 -22 20 -36 10 -58 35 -58 65 0 37 13 43 36 18 11 -12 36 -34 56 -51 l37
-29 15 36 c18 43 10 73 -30 104 -38 30 -76 27 -113 -10z m115 -24 c15 -22 12
-66 -4 -65 -14 1 -91 77 -85 84 3 3 21 6 39 6 25 0 38 -7 50 -25z"/>
<path d="M775 2380 c-18 -20 -20 -20 -32 -4 -10 14 -16 15 -25 6 -9 -9 -9 -15
0 -24 8 -8 8 -15 1 -24 -16 -20 -1 -38 18 -22 13 10 21 5 55 -35 30 -35 47
-47 67 -47 36 0 70 35 52 53 -10 9 -14 8 -22 -5 -15 -28 -35 -22 -78 25 l-41
42 22 18 c14 12 18 21 11 28 -6 6 -16 2 -28 -11z"/>
<path d="M2353 2247 c-68 -60 -89 -85 -81 -94 7 -9 32 8 101 70 51 45 92 86
92 91 0 25 -28 9 -112 -67z"/>
<path d="M601 2285 c-34 -31 -41 -43 -41 -76 0 -28 6 -42 22 -53 31 -22 39
-21 97 20 58 39 91 39 91 -1 0 -26 -53 -85 -76 -85 -16 0 -19 -16 -3 -25 14
-9 74 33 93 66 20 34 20 58 0 87 -21 30 -50 28 -104 -8 -60 -40 -90 -40 -90
-1 0 21 10 38 36 61 25 21 33 35 26 42 -7 7 -23 -2 -51 -27z"/>
<path d="M2396 2175 c-62 -33 -74 -92 -30 -144 20 -25 34 -31 64 -31 106 0
133 135 35 176 -41 17 -34 17 -69 -1z m79 -40 c14 -13 25 -33 25 -45 0 -49
-79 -80 -114 -44 -25 24 -20 69 10 93 34 27 50 26 79 -4z"/>
<path d="M417 2036 c-4 -9 4 -18 21 -24 15 -6 68 -31 119 -55 72 -36 93 -43
97 -31 4 10 -26 29 -108 69 -63 30 -116 55 -119 55 -3 0 -7 -6 -10 -14z"/>
<path d="M2520 1980 c-36 -15 -86 -35 -112 -44 -27 -10 -48 -24 -48 -32 0 -18
18 -17 50 1 37 21 48 18 42 -10 -7 -37 16 -82 49 -95 34 -15 66 -8 102 21 37
28 37 85 1 124 -15 17 -22 30 -15 34 5 4 7 11 3 17 -5 7 -30 1 -72 -16z m62
-47 c39 -36 8 -113 -47 -113 -29 0 -65 36 -65 65 0 52 73 84 112 48z"/>
<path d="M377 1938 c-3 -10 26 -26 107 -56 122 -45 136 -49 136 -29 0 6 -46
29 -103 50 -137 51 -134 50 -140 35z"/>
<path d="M410 1810 c0 -14 11 -19 48 -25 64 -9 92 -29 92 -64 0 -52 -40 -61
-145 -35 -19 5 -25 2 -25 -9 0 -17 14 -23 75 -33 22 -3 42 -7 43 -9 2 -2 16 1
32 6 37 13 58 61 43 99 -9 23 -8 27 3 23 8 -3 14 1 14 11 0 9 -3 16 -7 16 -5
0 -45 9 -90 19 -79 18 -83 18 -83 1z"/>
<path d="M2525 1738 c-22 -27 -26 -39 -22 -71 6 -43 28 -73 46 -63 8 5 7 14
-4 29 -19 28 -19 71 1 91 25 26 31 19 38 -41 4 -32 9 -65 12 -74 7 -24 39 -13
70 24 48 58 7 137 -72 137 -35 0 -47 -5 -69 -32z m126 -24 c15 -29 2 -77 -22
-82 -12 -2 -18 11 -26 53 -5 30 -8 57 -6 59 10 10 42 -8 54 -30z"/>
<path d="M310 1522 l0 -88 123 1 c102 0 122 3 122 15 0 11 -12 15 -50 15 l-50
0 2 63 c1 48 -2 62 -13 62 -10 0 -14 -15 -14 -59 0 -33 -3 -62 -7 -64 -5 -2
-25 -2 -45 0 l-38 5 0 69 c0 55 -3 69 -15 69 -12 0 -15 -16 -15 -88z"/>
<path d="M2608 1552 c-69 -2 -88 -6 -88 -17 0 -12 14 -15 59 -15 64 0 91 -15
91 -51 0 -10 7 -19 15 -19 17 0 20 27 5 50 -6 9 -5 17 2 21 5 3 8 13 6 20 -2
11 -23 13 -90 11z"/>
<path d="M2504 1335 c-8 -19 12 -36 33 -28 19 7 12 37 -10 41 -9 2 -20 -4 -23
-13z"/>
<path d="M550 1235 c-10 -12 -9 -16 4 -21 24 -9 47 3 40 21 -8 19 -28 19 -44
0z"/>
<path d="M2451 1135 c-27 -35 -35 -80 -21 -115 9 -23 32 -39 98 -70 66 -32 87
-38 94 -28 6 9 -13 23 -70 49 -94 45 -106 57 -98 104 12 63 59 70 154 25 73
-34 85 -36 80 -14 -4 21 -131 74 -178 74 -29 0 -43 -6 -59 -25z"/>
<path d="M615 1034 c-50 -29 -86 -30 -110 -4 -13 15 -22 17 -29 10 -8 -8 -3
-18 16 -35 17 -15 23 -25 15 -28 -8 -3 -9 -8 -2 -16 13 -13 163 57 164 76 2
21 -13 21 -54 -3z"/>
<path d="M667 966 c-3 -8 5 -18 19 -25 13 -6 29 -22 34 -37 13 -33 13 -37 -3
-58 -11 -15 -17 -11 -52 43 -22 34 -43 61 -47 61 -13 0 -48 -53 -48 -74 0 -36
36 -84 69 -91 56 -12 124 46 115 100 -5 34 -27 66 -55 81 -23 11 -28 11 -32 0z
m-9 -101 c17 -24 32 -47 32 -50 0 -12 -55 -4 -72 12 -24 22 -24 84 1 83 3 -1
21 -21 39 -45z"/>
<path d="M2350 947 c0 -7 43 -41 96 -76 71 -48 98 -61 106 -53 7 7 10 13 7 15
-27 23 -191 127 -199 127 -5 0 -10 -6 -10 -13z"/>
<path d="M2297 937 c-6 -15 161 -307 176 -307 19 0 1 39 -75 167 -94 160 -94
159 -101 140z"/>
<path d="M758 783 c-30 -33 -48 -64 -48 -79 0 -30 41 -74 70 -74 14 0 20 -5
18 -17 -5 -32 16 -19 76 45 43 45 56 66 49 73 -8 8 -24 -2 -55 -35 -49 -51
-77 -57 -108 -26 -29 29 -25 45 25 99 35 37 42 51 33 59 -10 8 -25 -4 -60 -45z"/>
<path d="M2190 762 c-21 -10 -42 -32 -53 -53 -22 -46 -14 -71 50 -148 26 -31
48 -58 50 -60 1 -2 10 -1 19 3 13 5 8 16 -30 61 -76 89 -87 124 -48 158 39 34
61 31 105 -15 24 -24 53 -56 65 -72 14 -18 27 -26 38 -22 12 5 6 18 -33 67
-71 92 -107 109 -163 81z"/>
<path d="M995 719 c-21 -10 -114 -156 -112 -174 1 -5 8 -9 15 -8 8 0 26 -12
40 -27 15 -16 42 -31 59 -35 28 -6 38 -2 63 23 38 39 39 79 4 121 -20 24 -34
31 -62 31 l-35 0 23 25 c32 34 56 31 98 -11 24 -24 38 -32 45 -25 14 14 -27
59 -70 77 -37 16 -41 16 -68 3z m45 -111 c26 -28 26 -62 -1 -89 -15 -15 -28
-19 -47 -14 -31 7 -62 39 -62 64 0 26 38 61 65 61 13 0 33 -10 45 -22z"/>
<path d="M2053 662 c-7 -5 -16 -35 -19 -68 -4 -32 -8 -60 -9 -62 -2 -2 -28 11
-59 28 -41 24 -60 29 -72 22 -15 -8 -5 -16 53 -45 l71 -36 -9 -48 c-5 -26 -11
-58 -14 -70 -4 -17 -1 -20 14 -16 14 4 20 17 24 60 3 30 8 57 10 59 2 2 25 -8
51 -22 35 -20 53 -24 67 -17 18 7 12 12 -43 38 -35 16 -64 30 -65 30 -4 2 15
113 22 136 7 20 -2 24 -22 11z"/>
<path d="M1123 507 c-29 -73 -30 -89 -7 -88 9 0 72 159 66 166 -16 15 -30 -4
-59 -78z"/>
<path d="M1220 542 c-34 -27 -21 -64 29 -87 45 -20 56 -38 35 -56 -12 -10 -22
-9 -51 5 -21 10 -40 13 -45 8 -14 -14 18 -34 66 -39 39 -5 46 -2 60 19 22 34
13 52 -40 79 -27 15 -43 30 -42 39 5 24 48 24 81 0 23 -18 31 -20 38 -9 11 19
4 25 -48 43 -58 20 -56 20 -83 -2z"/>
<path d="M1695 531 c-104 -18 -153 -98 -110 -181 24 -47 67 -63 146 -57 81 6
91 11 84 40 -8 37 -15 89 -22 150 -6 63 -6 63 -98 48z m66 -48 c0 -16 2 -37 5
-48 2 -11 7 -41 11 -67 l6 -48 -65 0 c-56 0 -68 3 -89 26 -50 54 -23 136 52
154 66 15 79 13 80 -17z"/>
<path d="M1391 511 c-25 -16 -3 -31 29 -20 20 8 35 7 52 -2 45 -24 52 -57 11
-53 -126 13 -123 14 -123 -16 0 -41 44 -80 89 -80 40 1 62 14 79 47 33 60 -14
133 -85 133 -21 0 -44 -4 -52 -9z m119 -102 c0 -16 -40 -49 -58 -49 -24 0 -62
28 -62 46 0 11 13 14 60 13 33 -1 60 -6 60 -10z"/>
<path d="M1065 370 c-4 -7 -3 -16 3 -22 14 -14 45 -2 40 15 -6 16 -34 21 -43
7z"/>
</g>
</svg>
